<svg xmlns="http://www.w3.org/2000/svg" xmlns:xlink="http://www.w3.org/1999/xlink" width="765.3" height="618.919"><style><![CDATA[.g{fill:#ef9067}.h{fill:#f4eff0}.i{fill:#fc9f6f}.j{stroke-miterlimit:10}.k{fill:#cecece}.l{fill:#2f262d}.m{fill:#f2f2f2}.n{stroke-width:3}.o{stroke-linecap:round}.p{stroke-linejoin:round}.q{stroke-dasharray:72, 3}]]></style><path d="M78.8 618.92H698a14.3 14.3 0 1 0 0-28.6H78.8a14.3 14.3 0 1 0 0 28.6z" opacity=".34" fill="#dade87"/><path d="M33.3 430.52h125.9c12.8 0 23.2-10.4 23.2-23.2s-10.4-23.2-23.2-23.2H88.9c-15.2 0-27.5-12.3-27.5-27.5s12.3-27.5 27.5-27.5h62.5c17.1 0 31-13.9 31-31s-13.9-31-31-31H81.9c-15.2 0-27.6-12.4-27.6-27.6s12.4-27.6 27.6-27.6h124.4c15.2 0 27.6-12.4 27.6-27.6s-12.4-27.6-27.6-27.6h-27.2c-15.2 0-27.6-12.4-27.6-27.6s12.4-27.6 27.6-27.6H578c15.2 0 27.6 12.4 27.6 27.6s-12.4 27.6-27.6 27.6h-11.7c-15.2 0-27.6 12.4-27.6 27.6s12.4 27.6 27.6 27.6h105.3c11.7 0 21.2 9.5 21.2 21.2s-9.5 21.2-21.2 21.2H560.7c-12.2 0-22.1 9.9-22.1 22.1s9.9 22.1 22.1 22.1h177c15.2 0 27.6 12.4 27.6 27.6s-12.4 27.6-27.6 27.6H566.3c-15.2 0-27.6 12.4-27.6 27.6s12.4 27.6 27.6 27.6h103.5c24.4 0 44.2 19.8 44.2 44.2s-19.8 44.2-44.2 44.2H33.3c-18.4 0-33.3-14.9-33.3-33.3 0-18.6 14.9-33.5 33.3-33.5z" fill="#87de8a"/><path d="M248.892 604.643h18v-270.8h-18z" class="l"/><path d="M335.4 388.42c2.9-6.5 0-14.2-6.6-17.2-1.7-.7-3.5-1.1-5.3-1.1-5.1 0-9.8 3-11.9 7.7l-64 144.2 23.8 10.6z" class="i"/><path d="M424.395 604.643h18v-270.8h-18z" class="l"/><path d="M359.1 351.52c61.9 0 112-47.2 112-105.3 0-15-3.4-29.3-9.4-42.3 39.4 16.3 66.9 53.4 66.9 96.4 0 58.2-50.1 105.3-112 105.3-45.9 0-85.3-25.9-102.6-63 13.9 5.7 29.1 8.9 45.1 8.9z" class="m"/><ellipse cx="-421.1" cy="323.719" rx="61.3" ry="56.3" transform="scale(-1 1)" fill="#3b323a"/><path d="M531.5 333.82h137.1c5.2 0 9.5-4.3 9.5-9.5v-9c0-5.2-4.3-9.5-9.5-9.5H531.5c-5.2 0-9.5 4.3-9.5 9.5v9c0 5.2 4.3 9.5 9.5 9.5z" fill="#afafaf"/><path d="M368 280.82c19.2 0 34.8-15.6 34.8-34.8v-34.8c0-13.3 10.7-24 24-24v58.8c0 32.5-26.3 58.8-58.8 58.8h-48.7v-24z" class="g"/><path d="M360.1 97.12c3.6 45.5 43.6 95.9 81 89.5 35.8-6.1 60.4-62.6 48.3-102.2-7.5-24.4-28.1-39.7-44.7-52-17.2-12.8-28.8-21.4-42-19.3-26.2 4-45.5 47.8-42.6 84z" fill="#f06"/><path d="M410.6 226.62c.7-.8 6.3-7.3 7.3-8.2 2.6-10.7 7.9-22.5 6.8-36.3 7.5-5.5 19.9-12.5 34-11.5 4.2.3 8.6 1.3 10.8 1.8 12.2 2.8 19.9 7.3 22.4 8.8 3.4 2.1 5.1 3.1 7.1 5.1 5.4 5.6 6.7 12.4 7.4 16.4 6 34.8 1.3 68.2.7 71.1-1.1 5.3-2.6 10-2.6 10-2.5 7.9-5.5 12.8-6.3 15-4 10.8-13.1 33.5-22.7 50.8-7 1.1-22.9 8.1-33.4 4.5-16-5.5-49-17.8-60.8-20.3 14.7-16.5 28.2-34.9 31.7-57.3.9-5.8 1.7-11.5 2.3-17.1-1.4-.7-9.9-5-11.6-13.6-1.8-9.3 5.5-17.6 6.9-19.2z" fill="#e9f053"/><ellipse transform="matrix(-.963248 -.268613 -.268613 .963248 0 0)" cx="-485.498" cy="58.866" rx="16.399" ry="19.099" class="g"/><path d="M454.4 164.42c-5.5 13-14.6 17.5-20.4 20.9-11.3 6.6-32.5 6-32.5 6-.7-4.6-1.4-8.6-5-16.2-5.2-11.3-10-14-16.7-24.2-10-15.4-15-34-11.8-35.8 2.3-1.4 8.6 5.8 12.7 10 11.7 12 37.9 29.8 73.7 39.3z" fill="#f06"/><path d="M454.8 193.02h4.2a16.56 16.56 0 0 0 16.6-16.6v-63.1h-33.2v67.2c0 6.9 5.6 12.5 12.4 12.5z" class="g"/><path d="M623.717 604.643h18v-270.8h-18z" class="l"/><path d="M513.006 604.643h18v-270.8h-18zm-372.456 0h18v-270.8h-18z" fill="#494149"/><path d="M475.6 120.02c-2.2 19.1-15.4 34.9-33.2 40.9v-51.4h33.2z" opacity=".7" fill="#d36b46"/><path d="M426.8 158.42c24.4 0 44.1-19.7 44.1-44.1v-53.8c0-2.3-1.8-4.1-4.1-4.1h-62.7c-11.8 0-21.4 9.6-21.4 21.4v36.5c0 24.4 19.7 44.1 44.1 44.1z" class="i"/><path d="M382.7 108.02c.5 1.2 1.7 2 3 2h19.4a3.33 3.33 0 0 0 3.3-3.3v-10.9a3.33 3.33 0 0 0-3.3-3.3h-19.4c-1.3 0-2.5.8-3 2v-4.2c.9-.5 1.9-.8 3-.8h19.4c3.5 0 6.3 2.8 6.3 6.3v10.9c0 3.5-2.8 6.3-6.3 6.3h-19.4c-1.1 0-2.1-.3-3-.8z" fill="#dd9883"/><use xlink:href="#B" fill="none" stroke="#dd9883" class="j n p"/><path d="M443.5 122.72v-53.8c0-2.3-1.8-4.1-4.1-4.1l-36.2-12.7c3.9-5.1-6 4.4.9 4.4h62.7c2.3 0 4.1 1.8 4.1 4.1v53.8c0 24.4-19.7 44.1-44.1 44.1h-1.6c11.1-8.1 18.3-21.1 18.3-35.8z" opacity=".6" class="g"/><use xlink:href="#B" x="-36" y="-2" fill="none" stroke="#f4f7cd" class="j n o q"/><path d="M415.3 136.22c5.6 0 10.1-4.5 10.1-10v-4.7h-20v4.7c0 5.5 4.4 10 9.9 10z" fill="#fcfafa"/><g fill="none" class="n j o"><path d="M433.4 97.92h-9m-25 0h-9" stroke="#161515" class="p"/><use xlink:href="#B" y="-2" stroke="#f4f7cd" stroke-linejoin="bevel" class="q"/></g><path d="M408.3 15.92C420.4.32 441 .62 444.8.22c3.4-.7 22.1.2 35.8 3.8 31.6 8.4 53.6 37 53.6 69.8v42c0 28.2-20.8 62.4-47.5 71.3-14.8 5-31.2 8.8-35.1 8.2 19.8-36.7 17.1-58.4 11.5-71.1-13.4-31-52.7-29.9-62.4-64.4-.2-1-6.3-25.9 7.6-43.9z" fill="#f06"/><path d="M284.9 304.52c-1-2.6-1.5-5.4-1.5-8.3 0-13.3 10.7-24 24-24s24 10.7 24 24c0 2.9-.5 5.7-1.5 8.3z" class="g"/><path d="M361.9 305.82c2-9.2 13.1-16.2 26.6-16.2 13.4 0 24.6 7 26.6 16.2z" class="h"/><ellipse cx="-493.6" cy="212.919" rx="14.6" ry="22.9" transform="scale(-1 1)" class="g"/><path d="M449.4 281.62c19.2 0 34.8-15.6 34.8-34.8v-42.5a12.04 12.04 0 0 1 12-12 12.04 12.04 0 0 1 12 12v42.5c0 32.5-26.3 58.8-58.8 58.8h-48.7v-24h24.4z" class="i"/><path d="M247.2 305.82h112a2.65 2.65 0 0 0 2.6-2.6 2.65 2.65 0 0 0-2.6-2.6H247.1a2.65 2.65 0 0 0-2.6 2.6c0 1.4 1.2 2.6 2.7 2.6z" fill="#fff"/><g class="h"><path d="M247.2 303.22h112c1 0 1.8-.5 2.3-1.3.2.4.4.8.4 1.3a2.65 2.65 0 0 1-2.6 2.6H247.2a2.65 2.65 0 0 1-2.6-2.6c0-.5.1-.9.4-1.3.4.7 1.2 1.3 2.2 1.3z"/><path d="M337.5 305.82h21.7a2.65 2.65 0 0 0 2.6-2.6 2.65 2.65 0 0 0-2.6-2.6h-21.7a2.65 2.65 0 0 0-2.6 2.6c0 1.4 1.1 2.6 2.6 2.6z"/></g><path d="M650.2 499.6H642v-1.9c0-1 .8-1.9 1.9-1.9h4.4c1 0 1.9.8 1.9 1.9zm-10 0H632v-1.9c0-1 .8-1.9 1.9-1.9h4.4c1 0 1.9.8 1.9 1.9zm-10 0H622v-1.9c0-1 .8-1.9 1.9-1.9h4.4c1 0 1.9.8 1.9 1.9zm-10 0H612v-1.9c0-1 .8-1.9 1.9-1.9h4.4c1 0 1.9.8 1.9 1.9zm-10 0H602v-1.9c0-1 .8-1.9 1.9-1.9h4.4c1 0 1.9.8 1.9 1.9zm-10 0H592v-1.9c0-1 .8-1.9 1.9-1.9h4.4c1 0 1.9.8 1.9 1.9zm-10 0H582v-1.9c0-1 .8-1.9 1.9-1.9h4.4c1 0 1.9.8 1.9 1.9zm-10 0H572v-1.9c0-1 .8-1.9 1.9-1.9h4.4c1 0 1.9.8 1.9 1.9zm-10 0H562v-1.9c0-1 .8-1.9 1.9-1.9h4.4c1 0 1.9.8 1.9 1.9zm-10 0H552v-1.9c0-1 .8-1.9 1.9-1.9h4.4c1 0 1.9.8 1.9 1.9z" transform="matrix(-1 0 0 1 905.3 -198.98069)" class="h"/><path d="M359.2 305.82h-21.7a2.65 2.65 0 0 1-2.6-2.6h27c0 1.4-1.2 2.6-2.7 2.6z" fill="#e2e2e2"/><path d="M349.5 387.02h79.1l.6-42h-98c-6.6 0-11.9 5.3-11.9 11.9.1 16.7 13.6 30.1 30.2 30.1z" fill="#352934"/><path d="M413.1 539.32l-48.5-164c-1.6-5.5-6.7-9.3-12.5-9.3-1.2 0-2.5.2-3.7.5-6.9 2-10.8 9.3-8.8 16.2l48.5 164z" class="g"/><path d="M372.8 525.92l40.3-11.9-50.8-171.7c-3.3-11.1-15-17.5-26.1-14.2s-17.5 15-14.2 26.1z" fill="navy"/><use xlink:href="#C" class="k"/><use xlink:href="#C" x="-10" class="h"/><path d="M213.9 299.32l13.8-69.9h24.6c3 0 5.3 2.8 4.7 5.7l-12.2 61.7c-.5 2.3 1.3 4.4 3.6 4.4h15c2.7 0 4.8 2.2 4.8 4.8h-48.6c-3.7.1-6.4-3.2-5.7-6.7z" class="k"/><g class="h"><path d="M212.6 306.12h25.5l14.8-75c.2-.9-.5-1.6-1.4-1.6h-28.7l-14.2 71.9c-.4 2.4 1.5 4.7 4 4.7z"/><path d="M244.3 299.32l-1.4 6.8h-4.8l1.3-6.8z"/></g><path d="M242.9 306.12c-2.5 0-4.4-2.3-3.9-4.8l.4-2h5.4zm4-112.5a9.82 9.82 0 0 1-9.8-9.8c0-1.8.5-3.4 1.3-4.8-1.4-.4-2.9-.7-4.5-.7-8.5 0-15.3 6.9-15.3 15.3s6.9 15.3 15.3 15.3c8.5 0 15.3-6.9 15.3-15.3v-.3c-.8.2-1.5.3-2.3.3z" class="k"/><g fill="navy"><path d="M337.2 364.12l82.4 21.7c22.4 5.9 45.1-10 56-36.3l-127.7-26.1c-11.2-2.9-22.7 3.8-25.6 15-3 11.3 3.7 22.8 14.9 25.7z"/><path d="M254.3 489.12l38.4 17.1 67.3-151.4c4.7-10.6-.1-23-10.7-27.7s-23 .1-27.7 10.7z"/></g><path d="M539.8 333.82H111.6c-5.2 0-9.5-4.3-9.5-9.5v-9c0-5.2 4.3-9.5 9.5-9.5h428.2c5.2 0 9.5 4.3 9.5 9.5v9c0 5.2-4.2 9.5-9.5 9.5z" class="m"/><path d="M191.7 537.82l85.1 15.5c3.3.6 6.4-1.5 7.1-4.6l.6-2.7c1.7-7.8-3.3-15.7-11.5-17.8l-62-15.7c-12-3-24.1 2.5-26.3 12.6l-.8 3.6c-.9 4.1 2.6 8.2 7.8 9.1z" fill="#f0f"/><path d="M188.4 530.12l95.1 17.3c.2 0 .4.1.6.1l-.3 1.2c-.7 3.2-3.8 5.2-7.1 4.6l-85.1-15.5c-5.2-.9-8.8-5-7.9-9.1l.1-.3c1.4.8 2.9 1.4 4.6 1.7z" fill="#fffdfd"/><path d="M367.4 591.32l71.1-49.2c2.7-1.9 3.5-5.6 1.7-8.3l-1.5-2.4c-4.3-6.7-13.5-8.8-20.7-4.4l-54.9 32.8c-10.7 6.4-15.3 18.9-9.7 27.5l2 3.1c2.2 3.5 7.7 3.9 12 .9z" fill="#f0f"/><path d="M359.6 588.22l79.5-55c.2-.1.3-.3.5-.4l.6 1c1.7 2.7 1 6.4-1.7 8.3l-71.1 49.2c-4.3 3-9.8 2.6-12-.9l-.2-.3c1.5-.3 3-1 4.4-1.9z" class="k"/><use xlink:href="#D" fill="#ff6161"/><path d="M590.2 252.82c10.7 0 19.3 8.7 19.3 19.3s-8.7 19.3-19.3 19.3-19.3-8.7-19.3-19.3 8.7-19.3 19.3-19.3zm0 34.4c8.3 0 15.1-6.8 15.1-15.1s-6.8-15.1-15.1-15.1-15.1 6.8-15.1 15.1c.1 8.4 6.8 15.1 15.1 15.1z" fill="#f4a36c"/><use xlink:href="#D" fill="#f7bc8b"/><path d="M573.6 291.82a8.28 8.28 0 0 0 8.3-8.3v-36.7h13.5v44.1c0 8.2-6.7 14.9-14.9 14.9h-16.2c-7.9 0-14.4-6.2-14.9-14z" fill="#efa573"/><path d="M382.9 305.82c-1-2.6-1.5-5.4-1.5-8.3 0-13.3 10.7-24 24-24s24 10.7 24 24c0 2.9-.5 5.7-1.5 8.3z" class="i"/><g transform="scale(-1 1)" class="m"><circle cx="-577.4" cy="232.319" r="6.5" opacity=".77"/><circle cx="-565.4" cy="209.619" r="9.7" opacity=".77"/></g><circle cx="-660.3" cy="129.119" r="27.6" transform="scale(-1 1)" fill="#87de8a"/><defs ><path id="B" d="M421.7 111.42h19.4c2.7 0 4.8-2.2 4.8-4.8v-10.9c0-2.7-2.2-4.8-4.8-4.8h-19.4c-2.7 0-4.8 2.2-4.8 4.8v10.9c0 2.7 2.2 4.8 4.8 4.8z"/><path id="C" d="M172.6 257.22h168a6.02 6.02 0 0 0 6-6l-20.8-120a6.02 6.02 0 0 0-6-6h-168a6.02 6.02 0 0 0-6 6l20.8 120c0 3.3 2.6 6 6 6z"/><path id="D" d="M564.3 305.82h16.2c8.2 0 14.9-6.7 14.9-14.9v-44.1h-46v44.1c-.1 8.2 6.6 14.9 14.9 14.9z"/></defs></svg>